<svg width="151" height="135" viewBox="0 0 151 135" fill="none" xmlns="http://www.w3.org/2000/svg">
<path fill-rule="evenodd" clip-rule="evenodd" d="M150.002 0L150 135H0L0.00219727 0H150.002ZM65.2888 103.927C65.2888 104.446 65.7107 104.868 66.2293 104.868H79.6472C80.1687 104.868 80.5877 104.446 80.5877 103.927V67.2038H90.3172C90.8064 67.2038 91.2137 66.8318 91.2547 66.3425L92.1892 55.28C92.2361 54.7292 91.8055 54.2576 91.2517 54.2576H80.5877V46.4089C80.5877 44.5691 82.0789 43.0779 83.9187 43.0779H91.4187C91.9373 43.0779 92.3592 42.656 92.3592 42.1345V31.072C92.3592 30.5534 91.9373 30.1316 91.4158 30.1316H78.7508C71.3152 30.1316 65.2888 36.1579 65.2888 43.5906V54.2576H58.5799C58.0584 54.2576 57.6365 54.6794 57.6365 55.2009V66.2634C57.6365 66.7849 58.0584 67.2038 58.5799 67.2038H65.2888V103.927Z" fill="#769ECF"/>
</svg>
