<svg width="150" height="135" viewBox="0 0 150 135" fill="none" xmlns="http://www.w3.org/2000/svg">
<path fill-rule="evenodd" clip-rule="evenodd" d="M150 0V135H0V0H150ZM83.7209 65.5176C82.9589 63.7546 82.1645 61.994 81.3154 60.2533C88.5545 57.1181 94.3716 52.8598 98.7071 47.461C102.936 52.4564 105.59 58.804 105.981 65.7492C97.9103 64.4269 90.4894 64.3547 83.7209 65.5176ZM92.245 93.326C90.8729 85.9525 88.8583 78.7433 86.2286 71.7108C92.108 70.8791 98.5776 71.0958 105.657 72.3259C104.288 81.0592 99.3023 88.6021 92.245 93.326ZM55.9325 91.9813C62.1032 82.2993 69.9823 75.9965 79.744 73.0879C82.6501 80.6757 84.7892 88.4776 86.1489 96.4687C75.9813 100.401 64.5536 98.7124 55.9325 91.9813ZM43.9719 66.7005C56.0321 66.6806 66.4387 65.296 75.1545 62.5543C75.8867 64.0409 76.5839 65.5351 77.2538 67.0442C66.6653 70.3512 57.9371 77.1371 51.1263 87.352C46.2255 81.4701 43.7851 74.3356 43.9719 66.7005ZM60.9826 39.8085C65.1563 45.2696 68.8518 50.9 72.0667 56.6748C64.449 58.9185 55.3597 60.069 44.8484 60.1412C47.0199 51.2561 53.0015 43.8676 60.9826 39.8085ZM93.9408 42.9263C90.1656 47.7947 84.9536 51.6446 78.3121 54.4585C75.1271 48.6264 71.4914 42.9362 67.38 37.4154C76.6835 35.0447 86.3083 37.0294 93.9408 42.9263ZM75.0001 29.8874C54.2291 29.8874 37.3877 46.7289 37.3877 67.4999C37.3877 88.2709 54.2291 105.112 75.0001 105.112C95.7736 105.112 112.613 88.2709 112.613 67.4999C112.613 46.7289 95.7711 29.8874 75.0001 29.8874Z" fill="#769ECF"/>
</svg>
