<svg width="150" height="135" viewBox="0 0 150 135" fill="none" xmlns="http://www.w3.org/2000/svg">
<path fill-rule="evenodd" clip-rule="evenodd" d="M150 0V135H0V0H150ZM98.4049 76.5638C95.3445 77.8144 93.3964 82.5967 91.4106 85.0412C90.3988 86.2918 89.186 86.4928 87.6212 85.8644C76.1526 81.2895 67.361 73.6354 61.0328 63.0843C59.9582 61.4441 60.1531 60.1496 61.4476 58.6288C63.358 56.3791 65.7585 53.8214 66.2738 50.7861C67.4239 44.0746 58.6511 23.2614 47.0631 32.694C13.7193 59.8605 102.684 131.921 118.74 92.9467C119.469 91.1683 119.84 89.1825 119.432 87.3035C118.332 82.2887 103.916 74.3015 98.4049 76.5638Z" fill="#769ECF"/>
</svg>
